<svg height="25" fill="#fff"
    xmlns="http://www.w3.org/2000/svg" viewBox="0 0 295.238 295.238" style="enable-background:new 0 0 295.238 295.238" xml:space="preserve">
    <path d="m277.462.09-27.681 20.72-27.838 64.905h-22.386l-8.79-19.048h5.743c10.505 0 19.048-8.452 19.048-18.957V28.571h9.524V0H196.51v28.571h9.524V47.71c0 5.248-4.271 9.433-9.524 9.433h-10.138L174.2 30.81l14.581-7.267-47.743-20.448-11.224 39.281C129.509 19.005 110.428.086 86.985.086c-23.633 0-42.857 19.224-42.857 42.857 0 14.281 7.233 27.676 19.048 35.595v7.176H51.643l-.743 3.905c-2.314 12.005-2.529 24.343-.638 36.648l-32.486 57.905 35.876 8.195v60.014h47.619v42.857h114.286v-66.357c33.333-23.581 52.371-61.495 52.343-101.943l.01-17.371c0-6.548-.605-13.276-1.824-19.905l-.705-3.948h-9.348l21.429-51.338V.09zm-71.429 19.048V9.614h9.524v9.524h-9.524zm-16.966 66.576h-18.062l-8.657-19.048h17.929l8.79 19.048zm-41.848-69.595 18.929 8.11-4.467 2.19 14.2 30.724h-17.862l-11.605-25.471-4.262 2.152 5.067-17.705zm13.324 69.596h-21.176v-9.433c0-5.252 4.271-9.614 9.524-9.614h2.995v-.001l8.657 19.048zm-18.7-41.063 5.776 12.71c-9.905.667-17.776 8.848-17.776 18.919v9.433h-19.048v-7.176c9.529-6.386 15.995-16.352 18.176-27.452l12.872-6.434zm-88.19-1.704c0-18.376 14.957-33.333 33.333-33.333 18.376 0 33.333 14.957 33.333 33.333 0 11.829-6.39 22.881-16.671 28.838l-2.376 1.371v12.557h-9.524V56.352c5.529-1.971 9.524-7.21 9.524-13.41 0-7.876-6.41-14.286-14.286-14.286-7.876 0-14.286 6.411-14.286 14.287 0 6.2 3.995 11.438 9.524 13.41v29.362H72.7V73.157l-2.376-1.376c-10.281-5.957-16.671-17.005-16.671-28.833zm33.333 4.762a4.767 4.767 0 0 1-4.762-4.762 4.763 4.763 0 0 1 4.762-4.762c2.629 0 4.762 2.133 4.762 4.762s-2.133 4.762-4.762 4.762zm170.38 47.529c.691 4.761 1.039 9.59 1.039 14.285l.01 17.405c.029 38.148-18.795 73.871-50.286 95.552l-2.095 1.429v61.805h-95.238v-42.857h-47.62v-58.086l-30.862-7.043 27.876-49.7-.271-1.7c-1.771-10.419-1.871-21.567-.333-31.09h197.78zm-11.652-9.525H232.3l23.738-55.343 10.557 5.257-20.881 50.086zm22.224-60-5.267-2.633 5.267-3.943v6.576z"/>
    <path d="M96.51 123.81c-7.876 0-14.286-4.762-14.286-14.286H72.7c0 14.286 10.681 23.81 23.81 23.81s23.81-9.524 23.81-23.81h-9.524c-.001 9.524-6.41 14.286-14.286 14.286z"/>
</svg>